# xmcd
#
# Track frame offsets:
#  150
#  22071
#  40874
#  57917
#  69011
#  86054
#  104345
#  120472
#  145531
#  165849
#
# Disc length: 2437 seconds
#
# Revision: 0
# Processed by: cddbd v1.5.2PL0 Copyright (c) Steve Scherf et al.
# Submitted via: AltoMP3_Maker 3.0
#
DISCID=7509830a
DTITLE=Gallie - Drinking with the Moon
DYEAR=1900
DGENRE=
TTITLE0=Easy
TTITLE1=Long may your days
TTITLE2=Hold On
TTITLE3=Drinking with the Moon
TTITLE4=Change of Heart
TTITLE5=Into the Arms
TTITLE6=The Nomad
TTITLE7=Levon
TTITLE8=The ballad of Robert Dempsey
TTITLE9=The sun will always shine
EXTD=
EXTT0=
EXTT1=
EXTT2=
EXTT3=
EXTT4=
EXTT5=
EXTT6=
EXTT7=
EXTT8=
EXTT9=
PLAYORDER=
